<svg xmlns="http://www.w3.org/2000/svg" width="95" height="70" viewBox="0 0 95 70">
  <g fill="#4D4D4D">
    <path d="M85.8356337,63.300839 C85.1422743,63.300839 84.4489149,63.300839 83.7457899,63.300839 C81.8512587,63.300839 79.9664931,63.300839 78.0719618,63.300839 C75.2594618,63.300839 72.4567274,63.300839 69.6442274,63.300839 C66.2555556,63.300839 62.8571181,63.300839 59.4684462,63.300839 C55.7282118,63.300839 51.9782118,63.300839 48.2379774,63.300839 C44.4782118,63.300839 40.7282118,63.300839 36.9684462,63.300839 C33.4723524,63.300839 29.9860243,63.300839 26.4899306,63.300839 C23.5504774,63.300839 20.6207899,63.300839 17.6813368,63.300839 C15.5914931,63.300839 13.5016493,63.300839 11.4215712,63.300839 C10.4743056,63.300839 9.52703993,63.300839 8.57977431,63.300839 C8.27703993,63.300839 7.98407118,63.2813078 7.69110243,63.2422453 C7.95477431,63.2813078 8.20868056,63.3106047 8.47235243,63.3496672 C7.99383681,63.2715422 7.53485243,63.144589 7.08563368,62.9590422 C7.32000868,63.0566984 7.55438368,63.1543547 7.78875868,63.2520109 C7.47625868,63.1152922 7.17352431,62.9492765 6.88055556,62.7637297 C6.28485243,62.363339 7.32000868,63.1641203 6.96844618,62.832089 C6.86102431,62.7344328 6.74383681,62.6367765 6.63641493,62.5293547 C6.52899306,62.4219328 6.43133681,62.3145109 6.33368056,62.1973234 C6.01141493,61.8457609 6.80243056,62.8711515 6.40203993,62.285214 C6.20672743,62.0020109 6.05047743,61.6992765 5.91375868,61.3770109 C6.01141493,61.6113859 6.10907118,61.8457609 6.20672743,62.0801359 C6.02118056,61.6309172 5.89422743,61.1719328 5.81610243,60.6934172 C5.85516493,60.957089 5.88446181,61.2109953 5.92352431,61.4746672 C5.83563368,60.7910734 5.86493056,60.097714 5.86493056,59.4141203 C5.86493056,58.1738859 5.86493056,56.9336515 5.86493056,55.6934172 C5.86493056,51.503964 5.86493056,47.3145109 5.86493056,43.1250578 C5.86493056,38.0274015 5.86493056,32.9297453 5.86493056,27.8223234 C5.86493056,23.4375578 5.86493056,19.0527922 5.86493056,14.6680265 C5.86493056,12.6270109 5.84539931,10.5859953 5.86493056,8.54497966 C5.86493056,8.26177653 5.88446181,7.97857341 5.92352431,7.68560466 C5.88446181,7.94927653 5.85516493,8.20318278 5.81610243,8.46685466 C5.89422743,7.98833903 6.02118056,7.52935466 6.20672743,7.08013591 C6.10907118,7.31451091 6.01141493,7.54888591 5.91375868,7.78326091 C6.05047743,7.47076091 6.21649306,7.16802653 6.40203993,6.87505778 C6.80243056,6.27935466 6.00164931,7.31451091 6.33368056,6.96294841 C6.43133681,6.85552653 6.52899306,6.73833903 6.63641493,6.63091716 C6.74383681,6.52349528 6.85125868,6.42583903 6.96844618,6.32818278 C7.32000868,6.00591716 6.29461806,6.79693278 6.88055556,6.39654216 C7.16375868,6.20122966 7.46649306,6.04497966 7.78875868,5.90826091 C7.55438368,6.00591716 7.32000868,6.10357341 7.08563368,6.20122966 C7.53485243,6.01568278 7.99383681,5.88872966 8.47235243,5.81060466 C8.20868056,5.84966716 7.95477431,5.87896403 7.69110243,5.91802653 C8.57977431,5.80083903 9.50750868,5.85943278 10.4059462,5.85943278 C12.2711806,5.85943278 14.1266493,5.85943278 15.9918837,5.85943278 C18.7750868,5.85943278 21.5485243,5.85943278 24.3317274,5.85943278 C27.7399306,5.85943278 31.1481337,5.85943278 34.5465712,5.85943278 C38.2965712,5.85943278 42.0563368,5.85943278 45.8063368,5.85943278 C49.5758681,5.85943278 53.3551649,5.85943278 57.1246962,5.85943278 C60.6403212,5.85943278 64.1559462,5.85943278 67.6715712,5.85943278 C70.6305556,5.85943278 73.5895399,5.85943278 76.5485243,5.85943278 C78.6578993,5.85943278 80.7672743,5.85943278 82.8668837,5.85943278 C83.8336806,5.85943278 84.7907118,5.85943278 85.7575087,5.85943278 C86.0602431,5.85943278 86.3532118,5.87896403 86.6461806,5.91802653 C86.3825087,5.87896403 86.1286024,5.84966716 85.8649306,5.81060466 C86.3434462,5.88872966 86.8024306,6.01568278 87.2516493,6.20122966 C87.0172743,6.10357341 86.7828993,6.00591716 86.5485243,5.90826091 C86.8610243,6.04497966 87.1637587,6.21099528 87.4567274,6.39654216 C88.0524306,6.79693278 87.0172743,5.99615153 87.3688368,6.32818278 C87.4762587,6.42583903 87.5934462,6.52349528 87.7008681,6.63091716 C87.8082899,6.73833903 87.9059462,6.84576091 88.0036024,6.96294841 C88.3258681,7.31451091 87.5348524,6.28912028 87.9352431,6.87505778 C88.1305556,7.15826091 88.2868056,7.46099528 88.4235243,7.78326091 C88.3258681,7.54888591 88.2282118,7.31451091 88.1305556,7.08013591 C88.3161024,7.52935466 88.4430556,7.98833903 88.5211806,8.46685466 C88.4821181,8.20318278 88.4528212,7.94927653 88.4137587,7.68560466 C88.5016493,8.36919841 88.4723524,9.06255778 88.4723524,9.74615153 C88.4723524,10.9863859 88.4723524,12.2266203 88.4723524,13.4668547 C88.4723524,17.6563078 88.4723524,21.8457609 88.4723524,26.035214 C88.4723524,31.1328703 88.4723524,36.2305265 88.4723524,41.3379484 C88.4723524,45.722714 88.4723524,50.1074797 88.4723524,54.4922453 C88.4723524,56.5332609 88.4918837,58.5742765 88.4723524,60.6152922 C88.4723524,60.8984953 88.4528212,61.1816984 88.4137587,61.4746672 C88.4528212,61.2109953 88.4821181,60.957089 88.5211806,60.6934172 C88.4430556,61.1719328 88.3161024,61.6309172 88.1305556,62.0801359 C88.2282118,61.8457609 88.3258681,61.6113859 88.4235243,61.3770109 C88.2868056,61.6895109 88.1207899,61.9922453 87.9352431,62.285214 C87.5348524,62.8809172 88.3356337,61.8457609 88.0036024,62.1973234 C87.9059462,62.3047453 87.8082899,62.4219328 87.7008681,62.5293547 C87.5934462,62.6367765 87.4860243,62.7344328 87.3688368,62.832089 C87.0172743,63.1543547 88.0426649,62.363339 87.4567274,62.7637297 C87.1735243,62.9590422 86.8707899,63.1152922 86.5485243,63.2520109 C86.7828993,63.1543547 87.0172743,63.0566984 87.2516493,62.9590422 C86.8024306,63.144589 86.3434462,63.2715422 85.8649306,63.3496672 C86.1286024,63.3106047 86.3825087,63.2813078 86.6461806,63.2422453 C86.3825087,63.2813078 86.1090712,63.300839 85.8356337,63.300839 C84.3024306,63.3203703 82.8375868,64.6387297 82.9059462,66.2305265 C82.9743056,67.8027922 84.1950087,69.1797453 85.8356337,69.1606203 C88.9215712,69.1211515 92.0075087,67.3926359 93.3746962,64.5703703 C94.0192274,63.2520109 94.3317274,61.8848234 94.3317274,60.4199797 C94.3317274,59.1797453 94.3317274,57.9297453 94.3317274,56.6895109 C94.3317274,54.2676359 94.3317274,51.8555265 94.3317274,49.4336515 C94.3317274,46.3184172 94.3317274,43.2031828 94.3317274,40.097714 C94.3317274,36.7188078 94.3317274,33.3399015 94.3317274,29.9609953 C94.3317274,26.8066984 94.3317274,23.6524015 94.3317274,20.4981047 C94.3317274,17.9981047 94.3317274,15.4981047 94.3317274,12.9981047 C94.3317274,11.6309172 94.3317274,10.253964 94.3317274,8.88677653 C94.3317274,8.02740153 94.2633681,7.16802653 94.0485243,6.32818278 C93.2868056,3.36919841 90.7575087,0.84966716 87.7496962,0.22466716 C86.6266493,-0.00970784024 85.5621962,-5.68167663e-05 84.4293837,-5.68167663e-05 C82.9743056,-5.68167663e-05 81.5094618,-5.68167663e-05 80.0543837,-5.68167663e-05 C77.7985243,-5.68167663e-05 75.5328993,-5.68167663e-05 73.2770399,-5.68167663e-05 C70.4450087,-5.68167663e-05 67.6129774,-5.68167663e-05 64.7809462,-5.68167663e-05 C61.5582899,-5.68167663e-05 58.3453993,-5.68167663e-05 55.1227431,-5.68167663e-05 C51.7438368,-5.68167663e-05 48.3551649,-5.68167663e-05 44.9762587,-5.68167663e-05 C41.6559462,-5.68167663e-05 38.3258681,-5.68167663e-05 35.0055556,-5.68167663e-05 C31.9196181,-5.68167663e-05 28.8336806,-5.68167663e-05 25.7575087,-5.68167663e-05 C23.1500868,-5.68167663e-05 20.5426649,-5.68167663e-05 17.9352431,-5.68167663e-05 C15.9918837,-5.68167663e-05 14.0387587,-5.68167663e-05 12.0953993,-5.68167663e-05 C11.0407118,-5.68167663e-05 9.97625868,-5.68167663e-05 8.92157118,-5.68167663e-05 C8.69696181,-5.68167663e-05 8.46258681,-5.68167663e-05 8.23797743,0.00982340976 C5.16180556,0.156307785 2.13446181,1.95318278 0.864930556,4.82427653 C0.298524306,6.08404216 0.00555555556,7.37310466 0.00555555556,8.75982341 C0.00555555556,9.22857341 0.00555555556,9.68755778 0.00555555556,10.1563078 C0.00555555556,12.0606047 0.00555555556,13.9649015 0.00555555556,15.8594328 C0.00555555556,18.7012297 0.00555555556,21.5430265 0.00555555556,24.3848234 C0.00555555556,27.6856047 0.00555555556,30.9863859 0.00555555556,34.2871672 C0.00555555556,37.6172453 0.00555555556,40.9375578 0.00555555556,44.2676359 C0.00555555556,47.1387297 0.00555555556,50.0000578 0.00555555556,52.8711515 C0.00555555556,54.8438078 0.00555555556,56.816464 0.00555555556,58.7988859 C0.00555555556,60.2344328 -0.0725694444,61.6992765 0.357118056,63.0859953 C1.25555556,65.9961515 3.78485243,68.4863859 6.85125868,68.9844328 C7.51532118,69.0918547 8.15985243,69.1606203 8.82391493,69.1606203 C9.82977431,69.1606203 10.8453993,69.1606203 11.8512587,69.1606203 C13.7457899,69.1606203 15.6403212,69.1606203 17.5348524,69.1606203 C20.1227431,69.1606203 22.7106337,69.1606203 25.2985243,69.1606203 C28.3453993,69.1606203 31.4020399,69.1606203 34.4489149,69.1606203 C37.7789931,69.1606203 41.1090712,69.1606203 44.4391493,69.1606203 C47.8082899,69.1606203 51.1774306,69.1606203 54.5465712,69.1606203 C57.7789931,69.1606203 61.0114149,69.1606203 64.2438368,69.1606203 C67.1149306,69.1606203 69.9860243,69.1606203 72.8571181,69.1606203 C75.1422743,69.1606203 77.4274306,69.1606203 79.7125868,69.1606203 C81.2262587,69.1606203 82.7399306,69.1606203 84.2633681,69.1606203 C84.7809462,69.1606203 85.3082899,69.1606203 85.8258681,69.1606203 C87.3590712,69.1606203 88.8239149,67.8125578 88.7555556,66.2305265 C88.6969618,64.6387297 87.4762587,63.300839 85.8356337,63.300839 Z"/>
    <path d="M87.3493056,2.84185466 C86.0407118,4.01372966 84.7321181,5.18560466 83.4332899,6.35747966 C80.3082899,9.16021403 77.1930556,11.9629484 74.0680556,14.7656828 C70.3375868,18.1055265 66.6168837,21.4551359 62.8864149,24.7949797 C59.7223524,27.6270109 56.5680556,30.4688078 53.4039931,33.300839 C52.0172743,34.5410734 50.6500868,35.7910734 49.2536024,37.0215422 C49.2536024,37.0215422 49.2536024,37.0215422 49.2536024,37.0215422 C49.2438368,37.0313078 49.0485243,37.207089 49.0289931,37.207089 C49.0289931,37.207089 49.6637587,36.7578703 49.2828993,37.0117765 C48.8825087,37.2754484 48.4918837,37.5098234 48.0524306,37.6953703 C48.2868056,37.597714 48.5211806,37.5000578 48.7555556,37.4024015 C48.2770399,37.5879484 47.7985243,37.7246672 47.2907118,37.8027922 C47.5543837,37.7637297 47.8082899,37.7344328 48.0719618,37.6953703 C47.4762587,37.7734953 46.8903212,37.7734953 46.2946181,37.6953703 C46.5582899,37.7344328 46.8121962,37.7637297 47.0758681,37.8027922 C46.5680556,37.7246672 46.0895399,37.5879484 45.6110243,37.4024015 C45.8453993,37.5000578 46.0797743,37.597714 46.3141493,37.6953703 C45.8746962,37.5098234 45.4743056,37.2754484 45.0836806,37.0117765 C44.9078993,36.894589 44.7809462,36.6797453 45.3375868,37.207089 C45.2692274,37.1387297 45.1911024,37.0801359 45.1129774,37.0215422 C45.1129774,37.0215422 45.1129774,37.0215422 45.1032118,37.0117765 C45.0641493,36.9824797 45.0348524,36.9434172 44.9957899,36.9141203 C44.7907118,36.7285734 44.5856337,36.5430265 44.3805556,36.3672453 C43.5211806,35.5957609 42.6715712,34.8340422 41.8121962,34.0625578 C38.8043837,31.3672453 35.7965712,28.6621672 32.7887587,25.9668547 C29.0680556,22.6270109 25.3473524,19.2871672 21.6266493,15.957089 C18.3649306,13.0274015 15.1032118,10.1074797 11.8414931,7.17779216 C10.2496962,5.75201091 8.67743056,4.30669841 7.06610243,2.89068278 C7.04657118,2.87115153 7.02703993,2.85162028 6.99774306,2.83208903 C5.85516493,1.80669841 3.96063368,1.62115153 2.85711806,2.83208903 C1.83172743,3.94537028 1.63641493,5.87896403 2.85711806,6.97271403 C4.23407118,8.21294841 5.61102431,9.44341716 6.98797743,10.6836515 C10.2399306,13.6035734 13.4918837,16.5137297 16.7340712,19.4336515 C20.5621962,22.8711515 24.3903212,26.3086515 28.2184462,29.7461515 C31.3336806,32.5391203 34.4489149,35.3418547 37.5641493,38.1348234 C38.4528212,38.9356047 39.3414931,39.7266203 40.2301649,40.5274015 C41.1871962,41.3867765 42.1442274,42.2461515 43.3356337,42.7637297 C45.9039931,43.8672453 48.5700087,43.8574797 51.1188368,42.7051359 C52.0075087,42.3047453 52.7789931,41.7090422 53.5016493,41.0645109 C54.0875868,40.5371672 54.6832899,40.0098234 55.2692274,39.472714 C58.0133681,37.0117765 60.7575087,34.550839 63.5016493,32.0899015 C67.2907118,28.691464 71.0797743,25.2930265 74.8590712,21.894589 C78.3551649,18.7598234 81.8512587,15.6152922 85.3473524,12.4805265 C87.3004774,10.7324797 89.2536024,8.97466716 91.2067274,7.22662028 C91.2946181,7.14849528 91.3922743,7.06060466 91.4801649,6.98247966 C92.6227431,5.95708903 92.6032118,3.86724528 91.4801649,2.84185466 C90.2692274,1.71880778 88.5700087,1.74810466 87.3493056,2.84185466 L87.3493056,2.84185466 Z"/>
    <path d="M91.4996962 62.1680265C90.3961806 61.1816984 89.3024306 60.1953703 88.1989149 59.2090422 85.5621962 56.8457609 82.9157118 54.472714 80.2789931 52.1094328 77.0953993 49.2578703 73.9215712 46.4063078 70.7379774 43.5547453 67.9840712 41.0938078 65.2399306 38.6231047 62.4860243 36.1621672 61.1383681 34.9609953 59.8102431 33.7402922 58.4528212 32.5488859 58.4332899 32.5293547 58.4137587 32.519589 58.3942274 32.5000578 57.2516493 31.4746672 55.3571181 31.2891203 54.2536024 32.5000578 53.2282118 33.613339 53.0328993 35.5469328 54.2536024 36.6406828 55.3571181 37.6270109 56.4508681 38.613339 57.5543837 39.5996672 60.1911024 41.9629484 62.8375868 44.3359953 65.4743056 46.6992765 68.6578993 49.550839 71.8317274 52.4024015 75.0153212 55.253964 77.7692274 57.7149015 80.5133681 60.1856047 83.2672743 62.6465422 84.6149306 63.847714 85.9430556 65.0684172 87.3004774 66.2598234 87.3200087 66.2793547 87.3395399 66.2891203 87.3590712 66.3086515 88.5016493 67.3340422 90.3961806 67.519589 91.4996962 66.3086515 92.5250868 65.1953703 92.7106337 63.2617765 91.4996962 62.1680265L91.4996962 62.1680265zM35.9430556 32.5098234C34.8395399 33.4961515 33.7457899 34.4824797 32.6422743 35.4688078 30.0055556 37.832089 27.3590712 40.2051359 24.7223524 42.5684172 21.5387587 45.4199797 18.3649306 48.2715422 15.1813368 51.1231047 12.4274306 53.5840422 9.68328993 56.0547453 6.92938368 58.5156828 5.59149306 59.7168547 4.20477431 60.8887297 2.89618056 62.128964 2.87664931 62.1484953 2.85711806 62.1582609 2.83758681 62.1777922 1.69500868 63.2031828 1.71453993 65.2930265 2.83758681 66.3184172 4.05828993 67.441464 5.75750868 67.4121672 6.97821181 66.3184172 8.08172743 65.332089 9.17547743 64.3457609 10.2789931 63.3594328 12.9157118 60.9961515 15.5621962 58.6231047 18.1989149 56.2598234 21.3825087 53.4082609 24.5563368 50.5566984 27.7399306 47.7051359 30.4938368 45.2441984 33.2379774 42.7734953 35.9918837 40.3125578 37.3297743 39.1113859 38.7164931 37.9395109 40.0250868 36.6992765 40.0446181 36.6797453 40.0641493 36.6699797 40.0836806 36.6504484 41.2262587 35.6250578 41.2067274 33.535214 40.0836806 32.5098234 38.8629774 31.3867765 37.1637587 31.4160734 35.9430556 32.5098234L35.9430556 32.5098234z"/>
  </g>
</svg>
