<?xml version="1.0" encoding="UTF-8"?>
<svg width="18px" height="20px" viewBox="0 0 18 20" version="1.1" xmlns="http://www.w3.org/2000/svg" xmlns:xlink="http://www.w3.org/1999/xlink">
    <!-- Generator: Sketch 56.3 (81716) - https://sketch.com -->
    <title>Atoms / Icons / User</title>
    <desc>Created with Sketch.</desc>
    <g id="Atoms-/-Icons-/-User" stroke="none" stroke-width="1" fill="none" fill-rule="evenodd">
        <g id="noun_User_911745" fill="#424242" fill-rule="nonzero">
            <g id="Atom-/-Icons-/-User">
                <path d="M9,10 C11.5998915,10 13.7142857,7.26100461 13.7142857,4.68051837 C13.7142857,2.09981793 11.5998915,0 9,0 C6.4005401,0 4.28571429,2.09960373 4.28571429,4.68030417 C4.28593006,7.26100461 6.40075587,10 9,10 Z" id="Path"></path>
                <path d="M12.6175995,10.8333333 C11.6827093,11.5202164 10.5166879,11.9290704 9.25362674,11.9290704 L8.74637326,11.9290704 C7.4833121,11.9290704 6.31707018,11.5202164 5.38240051,10.8333333 C2.33049892,11.3091951 0,13.8608094 0,16.9384882 C0,18.6292119 4.02935699,20 9,20 C13.970643,20 18,18.6292119 18,16.9384882 C18,13.8608094 15.6692805,11.3091951 12.6175995,10.8333333 Z" id="Path"></path>
            </g>
        </g>
    </g>
</svg>