<?xml version="1.0" encoding="UTF-8"?>
<svg width="26px" height="26px" viewBox="0 0 26 26" version="1.1" xmlns="http://www.w3.org/2000/svg" xmlns:xlink="http://www.w3.org/1999/xlink">
    <!-- Generator: Sketch 55.2 (78181) - https://sketchapp.com -->
    <title>Atom / Icons / Cog</title>
    <desc>Created with Sketch.</desc>
    <g id="Atom-/-Icons-/-Cog" stroke="none" stroke-width="1" fill="none" fill-rule="evenodd">
        <g id="noun_cog_2474150-(1)" fill="#424242" fill-rule="nonzero">
            <path d="M25.3959873,10.9545935 L22.7877508,10.2407603 C22.4033791,9.33474129 22.2386484,8.95036959 21.8817318,8.01689546 L23.2270327,5.65575502 C23.4192186,5.32629356 23.3643083,4.91446674 23.0897571,4.66737064 L21.3326294,2.91024287 C21.0580781,2.63569166 20.6462513,2.58078141 20.344245,2.77296727 L17.9831045,4.11826822 C17.0770855,3.73389652 16.6927138,3.56916579 15.7592397,3.21224921 L15.0454065,0.604012672 C14.9355861,0.247096093 14.6061246,0 14.249208,0 L11.750792,0 C11.3664203,0 11.0369588,0.247096093 10.9545935,0.604012672 L10.2407603,3.21224921 C9.33474129,3.59662091 8.95036959,3.76135164 8.01689546,4.11826822 L5.65575502,2.77296727 C5.32629356,2.58078141 4.91446674,2.63569166 4.66737064,2.91024287 L2.91024287,4.66737064 C2.63569166,4.94192186 2.58078141,5.35374868 2.77296727,5.65575502 L4.11826822,8.01689546 C3.73389652,8.92291447 3.56916579,9.30728617 3.21224921,10.2407603 L0.604012672,10.9545935 C0.247096093,11.0644139 0,11.3938754 0,11.750792 L0,14.249208 C0,14.6335797 0.247096093,14.9630412 0.604012672,15.0454065 L3.21224921,15.7592397 C3.59662091,16.6652587 3.76135164,17.0496304 4.11826822,17.9831045 L2.77296727,20.344245 C2.58078141,20.6737064 2.63569166,21.0855333 2.91024287,21.3326294 L4.66737064,23.0897571 C4.94192186,23.3643083 5.35374868,23.4192186 5.65575502,23.2270327 L8.01689546,21.8817318 C8.92291447,22.2661035 9.30728617,22.4308342 10.2407603,22.7877508 L10.9545935,25.3959873 C11.0644139,25.7529039 11.3938754,26 11.750792,26 L14.249208,26 C14.6335797,26 14.9630412,25.7529039 15.0454065,25.3959873 L15.7592397,22.7877508 C16.6652587,22.4033791 17.0496304,22.2386484 17.9831045,21.8817318 L20.344245,23.2270327 C20.6737064,23.4192186 21.0855333,23.3643083 21.3326294,23.0897571 L23.0897571,21.3326294 C23.3643083,21.0580781 23.4192186,20.6462513 23.2270327,20.344245 L21.8817318,17.9831045 C22.2661035,17.0770855 22.4308342,16.6927138 22.7877508,15.7592397 L25.3959873,15.0454065 C25.7529039,14.9355861 26,14.6061246 26,14.249208 L26,11.750792 C26,11.3938754 25.7529039,11.0644139 25.3959873,10.9545935 Z M12.9588173,18.7793031 C9.77402323,18.7793031 7.19324182,16.1985216 7.19324182,13.0137276 C7.19324182,9.82893347 9.77402323,7.24815206 12.9588173,7.24815206 C16.1436114,7.24815206 18.7243928,9.82893347 18.7243928,13.0137276 C18.7243928,16.1985216 16.1436114,18.7793031 12.9588173,18.7793031 Z" id="Shape"></path>
        </g>
    </g>
</svg>